inDegrees=yes
name=ik_S52_A01_T02
DataType=double
version=3
OpenSimVersion=4.3-2021-08-27-4bc7ad9
endheader
time	pelvis_tilt	pelvis_list	pelvis_rotation	pelvis_tx	pelvis_ty	pelvis_tz	hip_flexion_r	hip_adduction_r	hip_rotation_r	knee_angle_r	knee_angle_r_beta	ankle_angle_r	subtalar_angle_r	mtp_angle_r	hip_flexion_l	hip_adduction_l	hip_rotation_l	knee_angle_l	knee_angle_l_beta	ankle_angle_l	subtalar_angle_l	mtp_angle_l	lumbar_extension	lumbar_bending	lumbar_rotation	arm_flex_r	arm_add_r	arm_rot_r	elbow_flex_r	pro_sup_r	wrist_flex_r	wrist_dev_r	arm_flex_l	arm_add_l	arm_rot_l	elbow_flex_l	pro_sup_l	wrist_flex_l	wrist_dev_l
0	0	0	0	0	0.9399999999999999	0	0	0	0	0	0	0	0	0	0	0	0	0	0	0	0	0	0	0	0	0	0	0	0	89.99999999963507	0	0	0	0	0	0	89.99999999869995	0	0
0.12	-1.157666235067676	1.21485962786902	-88.73839762729898	0	0.9399999999999999	0	0.5300368618477638	-1.704779040603698	-5.650000554541103	2.161226217611262	0.03772051337773999	0	0	0	-1.302160286316226	-3.484740018797009	-0.4712213303378305	0.05739646870982538	0.001001757358004355	0	0	0	0	0	0	4.207468783931637	-4.207468783931636	0.7621879269376091	16.8310842772822	89.23781211748313	0	0	4.207468783931637	-4.207468783931636	0.7621879269376091	16.8310842772822	89.23781211669007	0	0
0.14	-1.158004973951786	1.202596543633093	-88.75809688515726	0	0.9399999999999999	0	0.4987675187473822	-1.716080974295604	-5.636193335317161	2.124628212856238	0.03708175769510427	0	0	0	-1.331619160238205	-3.47652462169502	-0.4179274362821399	0.0510198809381587	0.0008904649063463628	0	0	0	0	0	0	4.388367066279006	-4.388367066279004	0.7948420941132961	17.40885068909753	89.20515795221897	0	0	4.388367066279006	-4.388367066279004	0.7948420941132961	17.40885068909753	89.20515795143203	0	0
0.16	-1.14831706335624	1.203158414492886	-88.77133483064121	0	0.9399999999999999	0	0.5189432167747194	-1.736175532605895	-5.581957334398077	2.164587833021543	0.03777918463483516	0	0	0	-1.329145988836824	-3.483882272654696	-0.392913243725701	0.0779204532716774	0.001359968464237158	0	0	0	0	0	0	4.547854465009673	-4.547854465009671	0.8233912674646479	17.88570573447456	89.17660878053543	0	0	4.547854465009673	-4.547854465009671	0.8233912674646479	17.88570573447456	89.17660877975382	0	0
0.18	-1.141740879737761	1.170353457987248	-88.75950513509397	0	0.9399999999999999	0	0.4743161047088573	-1.710386398980304	-5.556007723115418	2.126587408968716	0.03711595211795928	0	0	0	-1.371112786365211	-3.467736602795932	-0.3732085107295859	0.04102910163170081	0.000716092912608557	0	0	0	0	0	0	4.715791128817363	-4.715791128817362	0.8536494495542523	18.43534006611385	89.14635060021655	0	0	4.715791128817363	-4.715791128817362	0.8536494495542523	18.43534006611385	89.14635059944061	0	0
0.2	-1.137339912169472	1.186664056725631	-88.75280634974405	0	0.9399999999999999	0	0.5041882767670295	-1.707004334315848	-5.518882755448036	2.165617923429327	0.03779716310404421	0	0	0	-1.341822845608825	-3.466922773043274	-0.3629601833898323	0.07301154522371056	0.001274291856122489	0	0	0	0	0	0	4.87561205492398	-4.875612054923979	0.8822163574378352	18.92492610226371	89.11778369400132	0	0	4.87561205492398	-4.875612054923979	0.8822163574378352	18.92492610226371	89.11778369323073	0	0
0.22	-1.167424073281084	1.133544259048325	-88.73373436200791	0	0.9399999999999999	0	0.45476550395833	-1.675389547472365	-5.542017553357891	2.188946868432548	0.03820433000536709	0	0	0	-1.392971606794207	-3.500250556667954	-0.3409363235891485	0.08096699126294964	0.001413140582971953	0	0	0	0	0	0	4.951085523768007	-4.951085523768005	0.8955060275462505	19.13864250931385	89.10449402466628	0	0	4.951085523768007	-4.951085523768005	0.8955060275462505	19.13864250931385	89.10449402389814	0	0
0.24	-1.173576351723972	1.140448784132865	-88.75104734971062	0	0.9399999999999999	0	0.5133940628790544	-1.682974593138658	-5.465778731762435	2.350748162617832	0.04102829532288825	0	0	0	-1.304419249040134	-3.468642137139987	-0.296769520101864	0.2827069654496188	0.004934167365417699	0	0	0	0	0	0	5.12931121884948	-5.129311218849478	0.9273473293888823	19.72795342090025	89.07265272468351	0	0	5.12931121884948	-5.129311218849478	0.9273473293888823	19.72795342090025	89.07265272392138	0	0
